<?xml version="1.0" encoding="UTF-8"?><svg id="_レイヤー_1" xmlns="http://www.w3.org/2000/svg" viewBox="0 0 800 152"><defs><style>.cls-1{fill:#e85400;}</style></defs><path class="cls-1" d="M203.16,56.93c-7.42-6.76-17.78-10.14-31.08-10.14-6.24-.27-12.44,1.08-17.99,3.93V24.37c.08-4.94-2.01-9.66-5.73-12.92-3.53-3.48-8.29-5.43-13.25-5.4-5.02-.16-9.9,1.66-13.58,5.07-3.63,3.56-5.59,8.49-5.4,13.58V118.41c-.16,5.02,1.66,9.9,5.07,13.58,3.33,3.69,8.12,5.72,13.09,5.56,5.19,.14,10.23-1.74,14.07-5.23,3.82-3.6,5.9-8.66,5.73-13.9v-27.48c.17-3,2-5.65,4.74-6.87,2.98-1.91,6.44-2.93,9.98-2.94,5.34,0,8.01,3.49,8.01,10.47v27.15c-.15,5.1,1.94,10,5.73,13.41,3.76,3.54,8.75,5.47,13.91,5.4,4.92,.08,9.66-1.87,13.09-5.4,3.54-3.56,5.49-8.4,5.4-13.41v-31.41c0-13.3-3.93-23.43-11.78-30.41Z"/><path class="cls-1" d="M309.86,59.21c-9.85-8.34-22.43-12.77-35.33-12.43-13.04-.4-25.77,3.96-35.83,12.27-10.21,8.29-15.96,20.88-15.54,34.03-.5,13.01,5.36,25.46,15.7,33.37,10.28,7.64,22.86,11.56,35.66,11.12,12.68,.45,25.12-3.54,35.17-11.29,10.15-7.96,15.87-20.31,15.38-33.21,.37-13.02-5.23-25.49-15.21-33.86Zm-25.36,43.51h0c-2.67,2.69-6.34,4.17-10.14,4.07-3.79,.01-7.43-1.45-10.14-4.09-2.79-2.5-4.4-6.07-4.42-9.81-.14-3.9,1.34-7.69,4.09-10.47,2.85-2.73,6.68-4.21,10.63-4.09,3.76-.11,7.38,1.37,9.98,4.09,2.71,2.8,4.18,6.57,4.09,10.47,.1,3.71-1.39,7.28-4.09,9.83Z"/><path class="cls-1" d="M419.73,59.04c-9.46-8.24-21.65-12.67-34.19-12.43-5.74-.39-11.45,1.16-16.19,4.42-4.47-3.32-9.99-4.89-15.54-4.42-5.25-.2-10.36,1.68-14.23,5.23-3.86,3.57-5.95,8.66-5.73,13.92v68.87c-.31,4.83,1.62,9.54,5.23,12.76,3.74,3.15,8.53,4.79,13.41,4.6,12.97,0,19.45-5.67,19.45-17.01,4.7,1.8,9.69,2.69,14.72,2.62,14.5,0,26.06-3.93,34.68-11.78,9.05-8.18,13.58-19.41,13.58-33.7,.22-12.76-5.37-24.93-15.2-33.08Zm-33.87,45.82h0c-3.21,.12-6.36-.93-8.84-2.96-2.3-2.09-3.55-5.08-3.43-8.18-.08-3.38,1.15-6.67,3.43-9.16,2.15-2.55,5.33-4,8.67-3.93,3.47-.13,6.84,1.17,9.33,3.6,2.52,2.43,3.89,5.82,3.76,9.33,0,7.53-4.3,11.3-12.92,11.3Z"/><path class="cls-1" d="M476.62,51.69c-8.24-6.48-19.82-6.55-28.14-.16-3.57,2.86-5.62,7.2-5.56,11.78v57.4c-.04,4.5,1.87,8.79,5.23,11.78,3.77,3.49,8.78,5.31,13.91,5.07,5.27,.24,10.45-1.44,14.56-4.75,3.62-2.97,5.67-7.43,5.56-12.11V63.47c.05-4.57-2-8.92-5.56-11.78Z"/><path class="cls-1" d="M688.8,99.95c-3.51-2.25-7.61-3.39-11.78-3.27-4.58,.82-9,2.37-13.09,4.6-4.87,2.57-10.21,4.13-15.7,4.6-4.03,.1-7.99-1.1-11.29-3.43-3.04-2.05-4.82-5.5-4.74-9.16,0-9.05,5.4-13.58,16.19-13.58,4.94,.39,9.71,1.96,13.9,4.6,4.25,2.65,9.08,4.22,14.07,4.58,4.46,.05,8.79-1.45,12.27-4.24,3.63-2.67,5.71-6.95,5.56-11.45,0-8.72-5.73-15.59-17.18-20.61-8.5-3.77-17.69-5.72-26.99-5.73-13.42-.51-26.59,3.79-37.13,12.11-10.52,8.58-16.39,21.6-15.87,35.17-.3,12.69,5.62,24.73,15.87,32.23,9.94,7.6,22.17,11.59,34.68,11.29,9.75,.05,19.41-1.78,28.46-5.4,12.32-4.91,18.48-11.94,18.49-21.1,.15-4.47-2.02-8.69-5.73-11.18Z"/><path class="cls-1" d="M55.03,52.35c-9.42,0-14.1-3.59-14.1-8.49,0-4.32,6.42-7.6,13.59-7.6,4.37-.12,8.59,1.57,11.67,4.67,1.12,1.51,1.95,2.39,3.8,2.39h34.47c1.56,0,2.14-.44,2.14-2.19C106.6,15.11,82.74,.32,56,.32,20.72,.32,1.81,18.2,1.81,44.84c.05,9,1.77,15.5,5.37,19.96,1.01,1.26,2.56,4.85,3.94,4.45,7.4-2.41,15.49-1.51,22.18,2.48,4.61,3.4,8.15,8.04,10.22,13.38,1.18,.84,6.05-.39,11.53-.39,8.56,0,14.48,4.05,14.48,8.77,0,5.81-9.36,8.21-14.48,8.21-6.5,0-16.31-2.4-16.31-10.8,0-11.18-10.15-18.2-19.7-18.2C8.36,72.87-.16,81.65,0,92.32,0,120.54,25.66,137.55,55.04,137.55s53.63-16.93,53.63-41.43c0-36.71-32.01-43.78-53.64-43.78Z"/><path class="cls-1" d="M584.65,91.25c-2.48-1.96-5.5-3.1-8.65-3.27-7.04-.16-13.2,4.69-14.69,11.57-.23,1.01-.61,1.98-1.14,2.86-.7,1.2-1.67,2.23-2.83,3.01l-.04,.03c-1.01,.66-2.07,1.22-3.18,1.68-4.34,1.59-8.95,2.3-13.57,2.08-5.58,.03-11.04-1.54-15.75-4.53-.57-.36-.74-1.12-.38-1.69,.23-.36,.62-.57,1.04-.57h29.79s.05-.04,.07-.06c1.25-.84,2.11-2.13,2.42-3.6,1.85-8.62,9.6-14.7,18.41-14.44,3.92,.2,7.68,1.61,10.77,4.04,.49,.39,.97,.8,1.41,1.24,1.7-9.11-1.17-20.44-12.24-30.38-9.78-8.47-22.41-12.91-35.33-12.43-13.04-.4-25.77,3.96-35.83,12.27-10.21,8.29-15.96,20.88-15.54,34.03-.5,13.01,5.36,25.46,15.7,33.37,10.28,7.64,22.86,11.56,35.66,11.12,11.42,.35,22.68-2.84,32.23-9.11,1-.69,1.99-1.41,2.94-2.17,6.42-4.75,11.19-11.4,13.62-19.01,1.42-4.62,.54-9.63-2.37-13.49-.73-.95-1.57-1.8-2.52-2.53Zm-58.41-11.93l.07-.06c4.01-3.24,9.04-4.93,14.19-4.77,5.1-.13,10.07,1.58,13.99,4.84,1.88,1.59,.47,2.59-.68,2.59h-26.91c-1.16,.02-2.68-1.07-.66-2.59Z"/><path class="cls-1" d="M796.97,93.78c-.73-.95-1.57-1.8-2.51-2.53-2.48-1.96-5.5-3.1-8.65-3.27-7.04-.16-13.2,4.69-14.69,11.57-.23,1.01-.61,1.98-1.14,2.86-.71,1.21-1.68,2.23-2.85,3.01l-.04,.03c-1.01,.66-2.07,1.22-3.18,1.68-4.34,1.59-8.95,2.3-13.57,2.08-5.58,.03-11.04-1.54-15.75-4.53-.57-.36-.74-1.12-.38-1.69,.23-.36,.62-.57,1.04-.57h29.79s.05-.04,.07-.06c1.25-.84,2.11-2.13,2.42-3.6,1.86-8.62,9.6-14.69,18.41-14.44,3.92,.2,7.68,1.61,10.77,4.04,.49,.39,.97,.8,1.41,1.24,1.7-9.11-1.17-20.45-12.24-30.38-9.78-8.47-22.41-12.91-35.33-12.43-13.04-.4-25.77,3.96-35.83,12.27-10.21,8.29-15.96,20.88-15.54,34.03-.5,13.01,5.36,25.46,15.7,33.37,10.28,7.64,22.86,11.56,35.66,11.12,11.42,.35,22.68-2.84,32.23-9.11,1-.69,1.99-1.41,2.95-2.17,6.42-4.75,11.19-11.4,13.62-19.01,1.42-4.61,.55-9.63-2.36-13.49Zm-60.91-14.46l.07-.06c4.01-3.24,9.04-4.93,14.19-4.77,5.1-.14,10.07,1.58,13.99,4.84,1.88,1.59,.47,2.59-.68,2.59h-26.91c-1.16,.02-2.68-1.07-.66-2.59Z"/><circle class="cls-1" cx="462.54" cy="19.63" r="19.63"/></svg>