<svg xmlns="http://www.w3.org/2000/svg" width="364.993" height="499.357" viewBox="0 0 364.993 499.357">
  <g id="グループ_126" data-name="グループ 126" transform="translate(32.992 -130.048)">
    <path id="パス_142" data-name="パス 142" d="M211.558,628.7a12.91,12.91,0,0,1,7.6-5.488c5.154-1.177,10.865,1.375,14.21,6.469,6.39-1.674,12.975.381,16.413,5.031,4.559,6.162,3.122,16.249-4.447,21.855a12.381,12.381,0,0,1,5.612,8.46,11.134,11.134,0,0,1-18.539,9.968,20.337,20.337,0,0,1-9.015,4.088c-10.391,1.814-18.316-5.646-19.327-6.628" transform="translate(-34.543 -71.818)" fill="#eea3be"/>
    <path id="パス_143" data-name="パス 143" d="M168.973,597.811a16.117,16.117,0,0,1,3.8-.2,15.914,15.914,0,0,1,6.663,1.923,22.429,22.429,0,0,1,8.258,8.009,19.725,19.725,0,0,1,2.189,12.03,10.612,10.612,0,0,0,2.367,5.4c3.917,4.574,11.7,4.824,16.571,1.8a10.61,10.61,0,0,0,3.125-2.841c6.219-8.566-2.783-24.054-3.883-25.946a36.677,36.677,0,0,0-7.7-9.664,37.848,37.848,0,0,0-21.753-9.085,253.082,253.082,0,0,1-73.906,1.422q-1.3,1.242-2.608,2.484c-.03.009-.06.015-.089.026l-22.714,9.4a16.058,16.058,0,0,0-8.082-9.949c-3.775-1.853-9.867-2.793-14.6.657a11.377,11.377,0,0,0-1.75,1.591,23.072,23.072,0,0,1-7.977-7.131,23.5,23.5,0,0,1-3.342-8.171c-.7-2.8-1.367-5.451-4.087-7.212-4.361-2.821-11.29-1.826-14.826,2.135-2.729,3.058-2.635,7.025-2.606,8.329.185,7.883,6.646,14.053,12.03,17.84-11.721-1.8-21.329.532-24.585,6.378-.338.607-3.231,6.093-.635,11.54.248.521,2.554,5.12,7.39,6.23a8.005,8.005,0,0,0,1.553.208c2.295.071,4.365-.952,7.867-2.682,1.671-.825,3.75-1.853,6.394-3.034.918-.409,1.847-.8,2.776-1.192a6.7,6.7,0,0,0-.318,1.019,10.277,10.277,0,0,0,1.027,6.729,10.935,10.935,0,0,0,5.473,4.9c.331,2.068,1.391,5.978,4.771,8.29a9.881,9.881,0,0,0,5.356,1.694c4.547.141,9.277-2.372,11.95-5a17.157,17.157,0,0,0,4.806-12.56c1.328.007,2.734-.046,4.208-.18a45.12,45.12,0,0,0,12.626-3.036c-.923,2.226-1.826,4.577-2.689,7.05a131.37,131.37,0,0,0-3.791,12.978c-1.327-.8-6.144-3.512-11.553-1.989a14.477,14.477,0,0,0-5.966,3.693c-7.469,8.035-2.143,27.416,5.777,39.772,6.314,9.851,12.555,12.551,14.678,13.353,2.751,1.038,7.62,2.876,12.405.568,6.6-3.186,7.51-11.6,7.576-12.31l21.963,1.33a23.161,23.161,0,0,0,5.5,9.086,18.633,18.633,0,0,0,8.949,5.539,18.141,18.141,0,0,0,11.221-.994c8.418-3.336,11.66-11.407,12.286-13.068a26.92,26.92,0,0,0,8.674-2.129,26.263,26.263,0,0,0,8.695-6.04c1.338-1.442,4.406-5.126,6.158-12.706,3.227-13.97-1.317-26.906-4.008-34.288A92.23,92.23,0,0,0,168.973,597.811Z" transform="translate(-5.939 -62.757)" fill="#eea3be"/>
    <path id="パス_144" data-name="パス 144" d="M118.921,583.474a162.568,162.568,0,0,0,38.86,3.406c6.95,9.614,18.442,28.579,12.131,45.151q-.424,1.114-.96,2.217a17.936,17.936,0,0,0-10.605-6.534c-6.365-1.153-11.256,1.867-13.447,3.22-8.267,5.105-10.561,13.922-11.079,16.193a40.824,40.824,0,0,1-15.814-2.273c-2.857-1.018-18.62-6.616-20.928-18.939a26.523,26.523,0,0,1,.841-11.309A23.167,23.167,0,0,1,102.03,606a21.83,21.83,0,0,1,4.805-4.515,41.946,41.946,0,0,1,12.086-18.008Z" transform="translate(-18.908 -66.07)" fill="#fff"/>
    <path id="パス_145" data-name="パス 145" d="M235.5,158.367c-32.226,12.739-50.5,35.018-58.238,44.7a160.229,160.229,0,0,0-31.912,69.7c-2.248-17.772-11.64-74.487-57.2-111.362-26.689-21.6-53-25.61-59.847-26.515-11.469-1.516-33.795-4.47-47.537,8.9-1.771,1.723-11.78,11.461-10.038,23.295a20.7,20.7,0,0,0,4.356,9.849c9.157,11.843,24.731,13.155,40.529,16.477,12.173,2.559,28.859,6.067,43.75,14.394,3.79,2.119,36.274,20.938,42.8,56.627a71.209,71.209,0,0,1,.757,20.076c-51.971,3.375-95.99,31.826-112.5,73.673-10.907,27.649-6.8,53.523-3.6,66.665a12.1,12.1,0,0,0-9.28,3.978,11.487,11.487,0,0,0-2.272,9.848C-23.138,445.1-13.945,450.042-2,449.46c-7.4,1-13.2,5.665-14.772,11.742a13.088,13.088,0,0,0,.947,9.28c3.353,5.992,12.858,8.742,22.916,5.3C.116,481.915-1.633,491.008,1.6,496.24c4,6.473,16.728,8.8,26.136.378a243.287,243.287,0,0,0,203.784,2.272c8.164,9.291,19.584,10.3,24.621,5.682,3.074-2.82,4.282-8.206,3.22-12.878a15.254,15.254,0,0,0-5.493-8.522c10.594,3.265,20.322-.847,22.916-7.386,2.258-5.69-1.423-11.855-1.7-12.31a16.529,16.529,0,0,0-11.742-7.386c12.377.8,21.976-3.8,23.674-10.038a11.186,11.186,0,0,0-8.334-13.921c3.091-11.219,9.274-39.864-3.125-71.4-16.81-42.757-55.669-60.031-65.055-64.2a126.8,126.8,0,0,0-25.568-8.238,80.274,80.274,0,0,1,12.5-37.215c16.489-25.288,43.507-33.456,53.124-36.363,12.391-3.746,25.9-5.342,30.113-5.825,19.461-2.23,30.8-.589,40.767-9.09,5.818-4.962,7.223-10.013,7.528-11.221,2.024-8.02-1.99-15.029-3.551-17.756-1.1-1.925-6.734-11.291-22.585-17.187C274.878,143.237,244.844,154.673,235.5,158.367Z" transform="translate(-0.513 -0.504)" fill="#eea3be"/>
    <ellipse id="楕円形_4" data-name="楕円形 4" cx="30.018" cy="42.234" rx="30.018" ry="42.234" transform="translate(54.032 386.003) rotate(-3)" fill="#fff"/>
    <ellipse id="楕円形_5" data-name="楕円形 5" cx="42.234" cy="31.818" rx="42.234" ry="31.818" transform="translate(114.26 464.847) rotate(-87)" fill="#fff"/>
    <ellipse id="楕円形_6" data-name="楕円形 6" cx="9.517" cy="5.398" rx="9.517" ry="5.398" transform="translate(107.999 454.686)" fill="#e0568f"/>
    <path id="パス_146" data-name="パス 146" d="M59.741,425.315a18.771,18.771,0,0,0-5.3,3.6,19.343,19.343,0,0,0-5.3,9.47" transform="translate(-11.967 -43.024)" fill="#eea3be"/>
    <path id="パス_147" data-name="パス 147" d="M224.936,420.881a16.132,16.132,0,0,1,7.007,3.22,16.8,16.8,0,0,1,5.872,10.227" transform="translate(-37.583 -42.378)" fill="#eea3be"/>
    <ellipse id="楕円形_7" data-name="楕円形 7" cx="4.449" cy="7.474" rx="4.449" ry="7.474" transform="translate(50.218 581.669) rotate(-21.892)" fill="#fff"/>
    <ellipse id="楕円形_8" data-name="楕円形 8" cx="4.449" cy="7.474" rx="4.449" ry="7.474" transform="translate(60.847 577.137) rotate(-48.018)" fill="#fff"/>
    <ellipse id="楕円形_9" data-name="楕円形 9" cx="10.365" cy="13.896" rx="10.365" ry="13.896" transform="matrix(0.81, -0.586, 0.586, 0.81, 59.725, 597.835)" fill="#fff"/>
    <ellipse id="楕円形_10" data-name="楕円形 10" cx="8.049" cy="5.776" rx="8.049" ry="5.776" transform="matrix(0.105, -0.995, 0.995, 0.105, 121.11, 587.511)" fill="#fff"/>
    <ellipse id="楕円形_11" data-name="楕円形 11" cx="5.776" cy="8.049" rx="5.776" ry="8.049" transform="matrix(0.995, -0.105, 0.105, 0.995, 136.924, 572.708)" fill="#fff"/>
    <g id="グループ_11" data-name="グループ 11" transform="translate(-32.992 130.048)">
      <ellipse id="楕円形_12" data-name="楕円形 12" cx="11.079" cy="14.062" rx="11.079" ry="14.062" transform="translate(157.515 460.147)" fill="#fff"/>
      <g id="グループ_10" data-name="グループ 10">
        <path id="パス_148" data-name="パス 148" d="M327.494,168.83c-2.084-3.639-8.606-12.727-24.137-18.5-19.637-7.305-43.01-5.7-69.47,4.757-33.624,13.292-52.4,36.77-59.474,45.609A162.439,162.439,0,0,0,145.4,257.121c-5.718-28.64-20.042-69.548-55.875-98.552-24.609-19.919-49-25.564-61.346-27.156-11.911-1.534-36.7-4.733-51.225,10.566-7.5,7.9-10.945,16.8-9.688,25.046a24.21,24.21,0,0,0,4.946,11.227c8.537,11.042,21.671,13.569,35.576,16.245,2.2.422,4.467.859,6.7,1.329C26.478,198.347,42.9,201.8,57.393,209.9c3.573,2,35.092,20.5,41.32,54.557a67.915,67.915,0,0,1,.935,16.741c-25.128,2.033-48.734,9.858-68.417,22.7-20.545,13.405-35.793,31.618-44.1,52.671-9.748,24.714-8.061,48.539-4.484,65.147a14.133,14.133,0,0,0-7.9,4.665,14.388,14.388,0,0,0-2.89,12.491c1.362,5.52,6.719,9.814,14.015,11.84a17.655,17.655,0,0,0-6.051,9.232,15.929,15.929,0,0,0,1.232,11.49c3.193,5.707,10.208,8.726,18.156,8.31A22.316,22.316,0,0,0-2.9,485.134a16.6,16.6,0,0,0,1.394,12.09c3.319,5.788,10.208,8.1,16.384,7.993a16.269,16.269,0,0,0-.541,4.881c.148,6.3,3.884,11.533,8.107,15.46-9.756-.4-17.371,2.352-20.441,7.865-1.728,3.1-2.945,8.408-.687,13.148.466.978,3.067,5.918,8.58,7.183a9.526,9.526,0,0,0,2.16.255c2.629,0,4.989-1.165,8.427-2.864,1.618-.8,3.626-1.792,6.152-2.923a12.384,12.384,0,0,0,1.4,5.69,12.513,12.513,0,0,0,5.471,5.293,13.7,13.7,0,0,0,5.335,8.529,11.786,11.786,0,0,0,6.756,2.007,16.376,16.376,0,0,0,5.2-.9c-2.089,3.595-3.065,8.52-2.9,14.742.435,16.011,11.477,30.9,21.552,37.955,4.722,3.307,9.337,5.019,13.384,5.019a12.5,12.5,0,0,0,3.974-.619c4.6-1.533,8.108-5.986,10.47-13.247l17.216.536c4.648,9.729,12.678,16.177,21.8,16.177,8.485,0,16.032-5.582,20.785-14.2a32.168,32.168,0,0,0,16.318-8.051,25.006,25.006,0,0,0,12.2,3.38,21.938,21.938,0,0,0,3.772-.327,22.715,22.715,0,0,0,8.469-3.342,14.245,14.245,0,0,0,13.6.9,14.455,14.455,0,0,0,3.748-23.286,19.126,19.126,0,0,0,3.2-4.575c.877-1.756,4.965-10.914-.718-18.771a16.542,16.542,0,0,0-6.962-5.5c.565-8.136-3.366-18.156-7.719-24.52a40.458,40.458,0,0,0-18.172-14.334,204.624,204.624,0,0,0,45.519-14.772,26.592,26.592,0,0,0,13.87,7.417,20.769,20.769,0,0,0,3.556.314,14.436,14.436,0,0,0,9.893-3.473c3.808-3.493,5.461-9.82,4.114-15.744a17.479,17.479,0,0,0-1.287-3.693c9.118.183,16.218-4.509,18.575-10.45,2.774-6.993-1.447-14.184-1.938-14.982a17.9,17.9,0,0,0-1.838-2.481c5.39-1.232,9.824-4.269,12.07-8.712a15.759,15.759,0,0,0-5.7-20.363c3.793-14.692,7.634-41.706-3.822-70.719-.665-1.683-16.768-41.453-59.827-62.724-3.294-1.627-6.7-3.074-6.843-3.134a133.359,133.359,0,0,0-23.525-7.47,77.862,77.862,0,0,1,11.794-33.6c15.894-24.375,41.752-32.192,51.485-35.134a170.328,170.328,0,0,1,29.588-5.716c4.649-.532,8.914-.847,12.676-1.126,12.417-.918,21.39-1.58,29.69-8.66,5.839-4.98,7.824-10.135,8.487-12.765C333.668,179.612,329.183,171.778,327.494,168.83ZM17.836,545.781c-4.007,1.98-5.119,2.483-6.6,2.143-2.941-.675-4.5-3.893-4.52-3.926-1.37-2.877-.265-6.273.512-7.667,2.448-4.4,12.844-6.837,27.289-2.7a2.99,2.99,0,0,0,2.134-5.562c-1.647-.8-16.1-8.137-16.336-18.113-.023-.985-.085-3.6,1.533-5.414a6.109,6.109,0,0,1,1.527-1.211c.273-.125.53-.26.791-.391a7.952,7.952,0,0,1,7.057.2c1.269.821,1.617,2.031,2.284,4.692a27.406,27.406,0,0,0,3.943,9.514,26.622,26.622,0,0,0,7.655,7.389,16.79,16.79,0,0,0-1.368,4.787,18.926,18.926,0,0,0,.25,6.333,25.052,25.052,0,0,0-12.65,3.937c-2.326.9-4.664,1.859-6.958,2.884C21.662,543.892,19.541,544.94,17.836,545.781ZM136.882,522.4a52.643,52.643,0,0,1,8.549,12.3c2.068,4.15,8.226,16.506,4.371,28.759a21,21,0,0,0-13.506-5.18c-10.375,0-19.348,8.346-23.523,20.383-15.6-.784-28.13-7.994-31.533-18.344a20.181,20.181,0,0,1-.792-8.593q.552-1.429,1.136-2.837a3.135,3.135,0,0,0,.217-.436,20.61,20.61,0,0,1,8.48-10.358,12.986,12.986,0,0,1,5.321-1.947c4.727-.532,8.569,2.125,10,3.294a2.99,2.99,0,0,0,3.781-4.634c-2.016-1.646-7.463-5.38-14.449-4.6-.454.051-.888.12-1.307.2.325-.513.65-1.025,1-1.524a45.484,45.484,0,0,1,7.241-8.153q9.542,1.175,19.149,1.674c.489.025,3.138.144,7.455.144C130.806,522.54,133.645,522.5,136.882,522.4ZM84.635,534.719a26.574,26.574,0,0,0-7.419,9.33c-2.268,1.225-8.808,4.221-15.022,2.009.105-.048.214-.095.308-.14a2.99,2.99,0,0,0-2.594-5.388,7.074,7.074,0,0,1-4.89.495,6.971,6.971,0,0,1-3.513-2.518c-1.5-1.868-2.239-5.162-1.836-8.2a9.206,9.206,0,0,1,3.5-6.379c3-2.191,7.311-1.717,10.246-.278a11.991,11.991,0,0,1,6.137,8.358,2.991,2.991,0,0,0,4.09,2.254l14.21-5.883A51.651,51.651,0,0,0,84.635,534.719ZM63.707,552.581a20.912,20.912,0,0,0,3.173.238,25.921,25.921,0,0,0,7.168-1.072c-.617,1.69-1.2,3.391-1.741,5.1-.679,2.143-1.3,4.32-1.865,6.5a21.122,21.122,0,0,0-10.357-1.081A19.306,19.306,0,0,0,63.707,552.581Zm13.445,8.961c.011.035.02.072.031.107a23.842,23.842,0,0,0,3.6,6.827,33.529,33.529,0,0,0-3.368-2.087c-.464-.249-.92-.478-1.375-.7Q76.557,563.6,77.152,561.542Zm-2.741-34.066a17.223,17.223,0,0,0-8.361-9.19c-4.216-2.068-11.042-3.1-16.4.814-.345.252-.671.526-.99.808a20.849,20.849,0,0,1-6.253-5.916,21.7,21.7,0,0,1-3.093-7.614c-.1-.389-.2-.779-.3-1.17a274.9,274.9,0,0,0,54.529,14.35ZM32.687,547.289a4.524,4.524,0,0,1,1.812-2.36,2.993,2.993,0,0,0,.443-.313c2.308-1.564,6.279-2.856,11.557-2.858.129.179.246.373.383.543a14.07,14.07,0,0,0,2.805,2.678A18.789,18.789,0,0,1,36.48,554a6.62,6.62,0,0,1-3.151-2.881A6.147,6.147,0,0,1,32.687,547.289ZM42.22,562.8a6.841,6.841,0,0,1-2.446-3.4,24.643,24.643,0,0,0,14.775-10.908,19.254,19.254,0,0,0,3.287,2.161,13.169,13.169,0,0,1-3.651,9.3C51.5,562.566,45.847,565.276,42.22,562.8Zm18.113,27.617a2.331,2.331,0,0,1-1.051,1.882,2.334,2.334,0,0,1-2.062-.632,8.884,8.884,0,0,1-2.63-3.7,10.605,10.605,0,0,1-.467-1.521q-.163-1.283-.219-2.568c.011-.132.008-.274.027-.4a2.332,2.332,0,0,1,1.052-1.882,1.088,1.088,0,0,1,.4-.072,2.946,2.946,0,0,1,1.662.7,8.886,8.886,0,0,1,2.63,3.7h0A8.891,8.891,0,0,1,60.333,590.414ZM98.254,609.3c.127-.512.254-1.028.372-1.562a2.99,2.99,0,1,0-5.837-1.3c-1.733,7.8-4.527,12.709-7.865,13.822-2.954.982-7.343-.337-12.037-3.625a49.089,49.089,0,0,1-16.519-21.515,5.677,5.677,0,0,0,2.524.655,4.436,4.436,0,0,0,1.665-.317,5.521,5.521,0,0,0,3.154-4.526,13.06,13.06,0,0,0-4.593-11.43,5.64,5.64,0,0,0-5.053-1.2c.5-4.475,1.935-7.519,4.295-9.076,2.388-1.574,7.144-2.432,16.234,2.424,10.517,5.618,14.669,16.5,16.208,22.488a2.99,2.99,0,0,0,5.791-1.489,46.464,46.464,0,0,0-8.409-17.251c6.175,4.168,14.292,6.842,23.367,7.458a47.441,47.441,0,0,0-1.273,10.972,46.2,46.2,0,0,0,2.764,15.924ZM136.3,623.425c-11.049,0-20.038-13.271-20.038-29.585s8.989-29.586,20.038-29.586,20.037,13.273,20.037,29.586S147.345,623.425,136.3,623.425Zm76.524-58.782c3.739,5.17.585,11.849.213,12.593a14.643,14.643,0,0,1-8.214,7.041,2.99,2.99,0,1,0,1.965,5.648,21.478,21.478,0,0,0,3.662-1.7,8.887,8.887,0,0,1,3,5.375,8.459,8.459,0,0,1-4.551,8.754,8.359,8.359,0,0,1-9.05-1.427,2.991,2.991,0,0,0-3.819-.108,17.179,17.179,0,0,1-7.684,3.5,17.68,17.68,0,0,1-11.007-1.82c5.195-7.78,5.217-16.587,5.225-22.653a64.227,64.227,0,0,0-3.628-21.189,12.029,12.029,0,0,1,1.922-2.128A11.3,11.3,0,0,0,183.6,564c2.832,3.2,7.629,4.859,12.358,4.859a15.921,15.921,0,0,0,10.406-3.451,11.721,11.721,0,0,0,2.884-3.85A10.443,10.443,0,0,1,212.82,564.643Zm-25.993-10.5a11.315,11.315,0,0,1,9.495,5.344,2.99,2.99,0,0,0,3.358,1.236,13.5,13.5,0,0,1,3.432-.55,5.342,5.342,0,0,1-.678.73c-3.439,3-11.356,2.523-14.356-.865C186.813,558.613,186.763,557.014,186.827,554.146Zm-18.882-16.189c.273.079.542.143.818.235,2.152.712,7.193,2.378,10.153,6.748a10.791,10.791,0,0,1,1.791,4.612,16.252,16.252,0,0,0-4.256,2.905A83.1,83.1,0,0,0,167.945,537.958Zm3.374-18.711c5.413.751,18.854,3.741,26.73,15.251,4.017,5.872,6.784,13.846,6.719,19.735a19.155,19.155,0,0,0-4.711.265,17.134,17.134,0,0,0-13.507-6.319,16.62,16.62,0,0,0-2.682-6.591c-4.1-6.056-10.732-8.247-13.226-9.073a29.41,29.41,0,0,0-14.72-.937,2.99,2.99,0,1,0,1.125,5.873,24,24,0,0,1,2.666-.346c7.852,9.467,16.888,24.358,16.864,42.731-.008,5.909-.027,13.1-4.215,19.341-.334-.29-.589-.529-.752-.687a2.99,2.99,0,1,0-4.168,4.288c.2.2.526.5.939.856a25.042,25.042,0,0,1-8.311,4.628,46.619,46.619,0,0,0,2.243-14.421c0-10.829-3.563-20.537-9.167-27.066.08-.2.166-.4.241-.607,3.54-9.542,2.149-20.772-4.135-33.378a56.356,56.356,0,0,0-6.907-10.623c8.1-.419,18.016-1.275,28.891-2.94C171.265,519.231,171.291,519.242,171.319,519.246ZM325.551,187.339c-.394,1.562-1.823,5.63-6.57,9.678-6.811,5.81-14.544,6.382-26.25,7.246-3.819.283-8.147.6-12.916,1.149a177.188,177.188,0,0,0-30.638,5.932c-9.319,2.817-37.678,11.39-54.763,37.592a83.755,83.755,0,0,0-12.669,35.7q-2.12-.365-4.252-.664a2.99,2.99,0,1,0-.826,5.922,127.521,127.521,0,0,1,32.152,8.883c.034.015,3.395,1.442,6.529,2.99,40.925,20.217,56.759,59.169,56.913,59.557,10.627,26.914,7.335,52.065,3.811,66.179a19.654,19.654,0,0,0-5.989-.468,2.99,2.99,0,0,0,.449,5.964c4.951-.367,9.553,1.97,11.467,5.828a10.015,10.015,0,0,1,.01,8.686c-2.32,4.588-8.827,6.862-15.774,5.761a18.445,18.445,0,0,0-3.058-.658,2.99,2.99,0,0,0-1.154,5.848,29.549,29.549,0,0,0,2.954.665,12.862,12.862,0,0,1,7.045,5.409c.033.052,3.2,5.283,1.472,9.641-1.974,4.978-10.184,8.425-19.257,5.632a2.99,2.99,0,0,0-2.715,5.218,12.172,12.172,0,0,1,4.411,6.825c.846,3.717-.154,8.021-2.324,10.012-1.795,1.648-4.929,2.272-8.384,1.673a20.038,20.038,0,0,1-9.434-4.643c.355-.279.7-.57,1.036-.872a2.99,2.99,0,1,0-4.013-4.433,13.73,13.73,0,0,1-1.4,1.1A13.387,13.387,0,0,1,229.7,495.7c-47.948,23.415-107.79,20.751-108.383,20.723a267.745,267.745,0,0,1-92.9-21.941,2.985,2.985,0,0,0-3.2.536,16.922,16.922,0,0,1-4.132,2.775l-.017.009a14.639,14.639,0,0,1-4.317,1.291c-3.3.442-10.284,0-13.06-4.846a10.664,10.664,0,0,1-.774-7.69,17.92,17.92,0,0,1,5.645-9.029,2.99,2.99,0,0,0-2.94-5.076c-9.342,3.2-16.938.357-19.339-3.934a10.09,10.09,0,0,1-.662-7.07c1.284-4.957,6.1-8.7,12.277-9.529a2.989,2.989,0,0,0,2.578-3.235,2.984,2.984,0,0,0-3.122-2.715c-10.879.533-18.543-3.919-19.679-8.524a8.571,8.571,0,0,1,1.656-7.206,9.054,9.054,0,0,1,6.91-2.915,3,3,0,0,0,2.409-1.109,2.989,2.989,0,0,0,.58-2.587c-3.849-15.816-6.369-39.907,3.474-64.862C.543,338.874,15,321.635,34.5,308.911s43.044-20.3,68.107-21.93a2.991,2.991,0,0,0,2.781-2.68,74.225,74.225,0,0,0-.791-20.918c-6.581-35.982-38.044-55.21-44.284-58.7-15.289-8.55-32.226-12.11-44.593-14.71-2.287-.481-4.583-.923-6.8-1.35-13.318-2.563-24.82-4.776-31.975-14.03a18.309,18.309,0,0,1-3.766-8.469c-1.311-8.611,4.52-16.244,8.113-20.029,12.438-13.1,35.19-10.163,46.124-8.752,11.72,1.51,34.884,6.881,58.348,25.873C126.737,196.386,138.5,246,141.87,272.63a2.99,2.99,0,0,0,5.9.191,157.551,157.551,0,0,1,31.311-68.4c6.8-8.5,24.856-31.075,57-43.783,31.2-12.333,52.667-9.369,65.186-4.713,13.7,5.1,19.273,12.8,21.033,15.871C323.793,174.4,327.279,180.489,325.551,187.339Z" transform="translate(32.992 -130.048)" fill="#1a1311"/>
        <ellipse id="楕円形_13" data-name="楕円形 13" cx="22.53" cy="31.698" rx="22.53" ry="31.698" transform="matrix(0.999, -0.052, 0.052, 0.999, 97.262, 265.801)" fill="#1a1311"/>
        <path id="パス_149" data-name="パス 149" d="M174.4,423.23c-1.181-5.584-2.548-7.242-3.76-7.379-2.306-.261-3.8,4.968-6.961,4.83-3.219-.141-4.4-5.564-6.534-5.4-1.159.091-2.506,1.839-3.764,7.96a34.717,34.717,0,0,0-13.233,10.006,48.829,48.829,0,0,0-9.366,18.079c-4.479-13.94-13.833-24.3-24.832-27.137-1.95-4.941-3.407-6.3-4.486-6.21-1.7.135-2.176,3.8-3.93,5.549a24.583,24.583,0,0,0-3.429.582c-2.374-1.052-4.445-4.315-5.994-3.715-.906.351-1.556,2.01-1.218,6.732a33.741,33.741,0,0,0-10.827,10.956c-5.526,8.708-8.23,20-7.613,31.791s4.488,22.738,10.895,30.821c6.288,7.933,14.305,12.243,22.7,12.243q.642,0,1.287-.033c6.94-.364,13.217-3.714,18.236-9.1,1.412,2.9,5.616,4.947,10.715,4.947,5.432,0,9.841-2.326,10.949-5.524a28.53,28.53,0,0,0,17.435,7.406q.7.037,1.4.037c18.336,0,34.019-18.916,35.28-42.972.619-11.818-2.285-23.139-8.178-31.879A33.555,33.555,0,0,0,174.4,423.23Zm-71.332,84.557c-7.152.38-14.152-3.274-19.7-10.275-5.751-7.255-9.229-17.166-9.792-27.905s1.86-20.958,6.822-28.776c4.787-7.542,11.365-11.9,18.521-12.278.337-.017.671-.026,1.007-.026,14.693,0,27.367,16.85,28.486,38.207C129.551,488.578,118.183,507,103.064,507.786Zm28.495-22.628a46.846,46.846,0,0,0,4.713,9.834,17.486,17.486,0,0,0-3.988-.453,17.208,17.208,0,0,0-4.64.619A49.872,49.872,0,0,0,131.559,485.159Zm.725,20.175c-4.469,0-7.808-1.948-7.808-3.689s3.339-3.689,7.808-3.689,7.809,1.948,7.809,3.689S136.754,505.334,132.284,505.334Zm59.944-37.906c-1.145,21.845-15.2,38.921-31.291,38.086-16.109-.844-28.283-19.3-27.138-41.148.561-10.714,4.21-20.594,10.273-27.822,5.6-6.671,12.613-10.293,19.873-10.293.38,0,.763.01,1.145.03,7.664.4,14.706,4.806,19.829,12.4C190.194,446.507,192.789,456.715,192.228,467.428Z" transform="translate(18.223 -171.609)" fill="#1a1311"/>
        <ellipse id="楕円形_14" data-name="楕円形 14" cx="32.899" cy="24.785" rx="32.899" ry="24.785" transform="translate(156.972 325.561) rotate(-87)" fill="#1a1311"/>
        <path id="パス_150" data-name="パス 150" d="M59.739,396.659a31.092,31.092,0,0,0,11.984,2.38A28,28,0,0,0,90.1,392.421a29.064,29.064,0,0,0,9.584-16.955,32.319,32.319,0,0,0,13.219,7.385,32.9,32.9,0,0,0,8.734,1.171,33.46,33.46,0,0,0,27.182-13.714c10.3-14.553,6.346-36.415-8.809-48.734a2.563,2.563,0,1,0-3.233,3.978c13.1,10.651,16.627,29.4,7.858,41.8-6.493,9.178-19.266,13.622-30.371,10.562-14.351-3.952-23.686-19.669-21.251-35.782a2.563,2.563,0,0,0-5.068-.766A39.092,39.092,0,0,0,95.1,370.4c-.071,2.966-.931,11.849-8.321,18.116-7.641,6.482-18.081,6.392-25.037,3.433-10.913-4.647-17.281-17.621-15.141-30.85a2.563,2.563,0,1,0-5.06-.818C39.034,375.8,46.685,391.1,59.739,396.659Z" transform="translate(22.2 -157.872)" fill="#1a1311"/>
        <path id="パス_151" data-name="パス 151" d="M192,538.19l-12.5-3.6a2.563,2.563,0,0,0-3.262,2.688c.6,6.812-2.513,13.272-7.748,16.075-7.363,3.942-17.5.326-22.125-7.9a2.563,2.563,0,0,0-4.466,2.515,23.315,23.315,0,0,0,19.941,12.15,19.125,19.125,0,0,0,9.07-2.248c6.046-3.237,10-9.96,10.477-17.405l9.195,2.647A2.563,2.563,0,0,0,192,538.19Z" transform="translate(7.556 -188.98)" fill="#1a1311"/>
        <path id="パス_152" data-name="パス 152" d="M58.734,422.976l-.032.017a20.4,20.4,0,0,0-7.146,6.268,20.656,20.656,0,0,0-3.481,8.533.931.931,0,0,0,1.806.432l0-.008a18.184,18.184,0,0,1,4.059-7.033,16.742,16.742,0,0,1,6.526-4.3,2.321,2.321,0,0,0,.273-.12,2.142,2.142,0,1,0-2.007-3.785Z" transform="translate(21.181 -172.695)" fill="#1a1311"/>
        <path id="パス_153" data-name="パス 153" d="M224.139,422.608a14.384,14.384,0,0,1,4.188,1.181A14.152,14.152,0,0,1,232,426.234a14.956,14.956,0,0,1,2.793,3.559,16.284,16.284,0,0,1,1.7,4.32l0,.015a.946.946,0,0,0,1.861-.326,18.467,18.467,0,0,0-1.324-5.093,17.775,17.775,0,0,0-2.793-4.592,17.513,17.513,0,0,0-4.166-3.562,18.361,18.361,0,0,0-5.12-2.141l-.034-.009a2,2,0,0,0-.243-.045,2.14,2.14,0,1,0-.539,4.247Z" transform="translate(-4.202 -172.056)" fill="#1a1311"/>
        <path id="パス_154" data-name="パス 154" d="M81.356,658.641a11.119,11.119,0,0,0,7.117,3.115,4.991,4.991,0,0,0,3.827-1.551,5.519,5.519,0,0,0,.839-5.451,12.205,12.205,0,0,0-3.546-5.268h0c-3.827-3.446-8.634-4.132-10.944-1.566S77.528,655.2,81.356,658.641Zm-.167-8.434a1.721,1.721,0,0,1,1.291-.42,7.793,7.793,0,0,1,4.828,2.24h0a8.893,8.893,0,0,1,2.569,3.739,2.328,2.328,0,0,1-.116,2.154c-.747.832-3.5.535-6.118-1.819S80.442,651.037,81.188,650.207Z" transform="translate(16.896 -205.282)" fill="#1a1311"/>
        <path id="パス_155" data-name="パス 155" d="M83.471,668.574c-5.392,3.9-5.674,12.749-.63,19.72a18.2,18.2,0,0,0,9.095,6.808,13.007,13.007,0,0,0,3.892.623,10,10,0,0,0,5.943-1.87,10.861,10.861,0,0,0,4.257-8.954,18.2,18.2,0,0,0-3.627-10.766C97.355,667.165,88.862,664.67,83.471,668.574Zm16.3,22.513a7.537,7.537,0,0,1-6.811.754,14.777,14.777,0,0,1-7.348-5.551c-3.94-5.444-4-12.15-.134-14.948a6.681,6.681,0,0,1,3.98-1.227c3.45,0,7.409,2.2,10.178,6.024a14.771,14.771,0,0,1,2.978,8.713A7.537,7.537,0,0,1,99.769,691.087Z" transform="translate(16.639 -208.249)" fill="#1a1311"/>
        <path id="パス_156" data-name="パス 156" d="M153.437,664.951c3.91,0,7.285-3.793,7.828-8.956.572-5.441-2.249-10.048-6.424-10.486a6.822,6.822,0,0,0-5.763,2.481,11.522,11.522,0,0,0-2.7,6.441c-.572,5.441,2.249,10.048,6.424,10.486A5.911,5.911,0,0,0,153.437,664.951Zm-3.661-10.163a8.208,8.208,0,0,1,1.855-4.527,3.689,3.689,0,0,1,2.59-1.368,2.486,2.486,0,0,1,.263.014c2.193.231,3.743,3.313,3.383,6.731s-2.52,6.112-4.708,5.881S149.416,658.207,149.776,654.789Z" transform="translate(6.866 -205.152)" fill="#1a1311"/>
        <path id="パス_157" data-name="パス 157" d="M179.777,654.432a11.528,11.528,0,0,0-2.7-6.441,6.84,6.84,0,0,0-5.764-2.481c-4.174.438-7,5.045-6.424,10.486.542,5.163,3.918,8.956,7.828,8.956a5.935,5.935,0,0,0,.636-.033C177.527,664.48,180.349,659.873,179.777,654.432ZM173,661.52c-2.2.22-4.35-2.463-4.709-5.881s1.189-6.5,3.382-6.731a2.53,2.53,0,0,1,.263-.014,3.691,3.691,0,0,1,2.591,1.368,8.215,8.215,0,0,1,1.855,4.527C176.737,658.207,175.189,661.289,173,661.52Z" transform="translate(4.169 -205.152)" fill="#1a1311"/>
        <path id="パス_158" data-name="パス 158" d="M162.178,666.68c-7.051,0-12.788,7.074-12.788,15.771s5.737,15.771,12.788,15.771,12.789-7.075,12.789-15.771S169.229,666.68,162.178,666.68Zm0,28.125c-5.167,0-9.371-5.543-9.371-12.354s4.2-12.354,9.371-12.354,9.372,5.542,9.372,12.354S167.345,694.8,162.178,694.8Z" transform="translate(6.417 -208.241)" fill="#1a1311"/>
      </g>
    </g>
  </g>
</svg>
